<svg xmlns="http://www.w3.org/2000/svg" width="22" height="22" viewBox="0 0 22 22">
	<path d="M16,5c0.552,0,1-0.448,1-1V2c0-0.552-0.448-1-1-1c-0.552,0-1,0.448-1,1v2 C15,4.552,15.448,5,16,5z M19,3v1c0,1.657-1.343,3-3,3s-3-1.343-3-3V3H9v1c0,1.657-1.343,3-3,3S3,5.657,3,4V3C1.895,3,1,3.895,1,5 v14c0,1.105,0.895,2,2,2h16c1.105,0,2-0.895,2-2V5C21,3.895,20.105,3,19,3z M6,19H4v-2h2V19z M6,15H4v-2h2V15z M6,11H4V9h2V11z M10,19H8v-2h2V19z M10,15H8v-2h2V15z M10,11H8V9h2V11z M14,19h-2v-2h2V19z M14,15h-2v-2h2V15z M14,11h-2V9h2V11z M18,15h-2v-2h2 V15z M18,11h-2V9h2V11z M6,5c0.552,0,1-0.448,1-1V2c0-0.552-0.448-1-1-1S5,1.448,5,2v2C5,4.552,5.448,5,6,5z"/>
</svg>